# xmcd
#
# Track frame offsets:
# 150
# 13765
# 31468
# 62297
# 88059
# 105856
# 124583
# 150275
#
# Disc length: 2260 seconds
#
#
# Revision: 2
# Processed by: cddbd v1.5.2PL0 Copyright (c) Steve Scherf et al.
# Submitted via: FreeRIP 2.951 
#
DISCID=4e08d208
DTITLE=Asterix - Asterix 05 Die Goldene Sichel
DYEAR=2004
DGENRE=Hörspiel
TTITLE0=Die Goldene Sichel 1
TTITLE1=Die Goldene Sichel 2
TTITLE2=Die Goldene Sichel 3
TTITLE3=Die Goldene Sichel 4
TTITLE4=Die Goldene Sichel 5
TTITLE5=Die Goldene Sichel 6
TTITLE6=Die Goldene Sichel 7
TTITLE7=Die Goldene Sichel 8
EXTD=
EXTT0=
EXTT1=
EXTT2=
EXTT3=
EXTT4=
EXTT5=
EXTT6=
EXTT7=
PLAYORDER=
